<svg width="22" height="23" viewBox="0 0 22 23" fill="none" xmlns="http://www.w3.org/2000/svg">
<path fill-rule="evenodd" clip-rule="evenodd" d="M21.9167 11.5419C21.9167 12.2633 21.8432 12.9836 21.699 13.6858C21.5583 14.3713 21.35 15.0443 21.0771 15.6877C20.8104 16.3197 20.4797 16.9287 20.0932 17.4966C19.7125 18.061 19.2739 18.5905 18.7921 19.0731C18.3092 19.5537 17.778 19.991 17.2139 20.3734C16.6441 20.7572 16.0342 21.0874 15.4018 21.3553C14.7575 21.6268 14.083 21.8349 13.3981 21.9753C12.6949 22.1199 11.9719 22.1937 11.2495 22.1937C10.5266 22.1937 9.80363 22.1199 9.10151 21.9753C8.41556 21.8349 7.74104 21.6268 7.09724 21.3553C6.46493 21.0874 5.85446 20.7572 5.28465 20.3734C4.72056 19.9911 4.18929 19.5537 3.70749 19.0731C3.22518 18.5905 2.7866 18.061 2.40533 17.4966C2.02094 16.9287 1.68965 16.3196 1.42194 15.6877C1.14898 15.0443 0.940143 14.3713 0.798984 13.6858C0.656281 12.9836 0.583344 12.2633 0.583344 11.5419C0.583344 10.82 0.65624 10.0981 0.799026 9.39744C0.940184 8.71192 1.14902 8.03788 1.42198 7.39556C1.68969 6.76312 2.02098 6.15356 2.40537 5.58558C2.78664 5.02076 3.22523 4.49229 3.70753 4.00911C4.18933 3.5285 4.7206 3.09217 5.28469 2.71042C5.8545 2.32499 6.46498 1.99476 7.09729 1.72636C7.74108 1.45429 8.41555 1.24576 9.10156 1.10639C9.80367 0.962847 10.5266 0.890015 11.2496 0.890015C11.972 0.890015 12.6949 0.962847 13.3981 1.10639C14.083 1.2458 14.7575 1.45433 15.4019 1.72636C16.0342 1.99472 16.6441 2.32499 17.2139 2.71042C17.778 3.09217 18.3093 3.5285 18.7921 4.00911C19.2739 4.49229 19.7125 5.02076 20.0932 5.58558C20.4797 6.15356 20.8104 6.76316 21.0771 7.39556C21.35 8.03788 21.5583 8.71192 21.699 9.39744C21.8432 10.0981 21.9167 10.82 21.9167 11.5419ZM7.36283 3.31424C4.82256 4.51208 2.92664 6.84944 2.33545 9.66636C2.5756 9.66845 6.37163 9.71631 10.7453 8.5559C9.16866 5.75874 7.48419 3.47604 7.36283 3.31424ZM11.5 9.95662C6.80967 11.3588 2.30889 11.2579 2.14744 11.2517C2.14481 11.3494 2.14014 11.4441 2.14014 11.5419C2.14014 13.8787 3.02299 16.0091 4.47411 17.6199C4.47098 17.6152 6.96385 13.1989 11.8797 11.6116C11.9985 11.5721 12.1193 11.5367 12.2391 11.5024C12.0105 10.9854 11.7609 10.4674 11.5 9.95662ZM17.2654 4.71491C15.6617 3.30278 13.5559 2.44622 11.2495 2.44622C10.5093 2.44622 9.79108 2.53569 9.10303 2.70107C9.23947 2.88417 10.9505 5.15078 12.5084 8.00719C15.9456 6.72046 17.243 4.74818 17.2654 4.71491ZM12.86 13.0096C12.8398 13.0163 12.8195 13.0221 12.7996 13.0294C7.42496 14.9004 5.66979 18.671 5.6508 18.7121C7.19727 19.913 9.13695 20.6376 11.2496 20.6376C12.5111 20.6376 13.7127 20.3811 14.8059 19.9167C14.671 19.122 14.1419 16.3363 12.86 13.0096ZM16.3399 19.0856C18.3853 17.7073 19.8379 15.5187 20.2432 12.9836C20.0557 12.9233 17.5071 12.1176 14.5668 12.5883C15.7617 15.8671 16.2471 18.5374 16.3399 19.0856ZM13.2096 9.36261C13.421 9.7964 13.6257 10.2379 13.8148 10.6816C13.882 10.8408 13.9476 10.9968 14.0117 11.1528C17.141 10.7596 20.224 11.4212 20.3558 11.4482C20.3349 9.29186 19.5625 7.31283 18.2843 5.76346C18.2671 5.78785 16.8061 7.89587 13.2096 9.36261Z" fill="#E0EBFF"/>
</svg>
