<svg width="20" height="17" viewBox="0 0 20 17" fill="none" xmlns="http://www.w3.org/2000/svg">
<path fill-rule="evenodd" clip-rule="evenodd" d="M9.651 4.81301L9.69297 5.50506L8.99349 5.42032C6.44739 5.09548 4.22304 3.99386 2.33445 2.1437L1.41114 1.22568L1.17331 1.9036C0.669688 3.4148 0.991448 5.01074 2.04067 6.08412C2.60025 6.6773 2.47434 6.76204 1.50906 6.40895C1.17331 6.29597 0.879531 6.21123 0.851552 6.2536C0.753625 6.35246 1.08938 7.63769 1.35518 8.14613C1.71891 8.8523 2.46035 9.54434 3.27175 9.95392L3.95724 10.2788L3.14584 10.2929C2.36243 10.2929 2.33445 10.307 2.41839 10.6036C2.69818 11.5216 3.80336 12.4961 5.03444 12.9198L5.90179 13.2164L5.14636 13.6684C4.02719 14.318 2.71217 14.6852 1.39715 14.7135C0.767615 14.7276 0.25 14.7841 0.25 14.8265C0.25 14.9677 1.95673 15.7586 2.94999 16.0693C5.92977 16.9874 9.46914 16.5919 12.1272 15.0242C14.0158 13.9085 15.9043 11.6911 16.7857 9.54434C17.2613 8.40035 17.737 6.31009 17.737 5.30733C17.737 4.65766 17.779 4.57292 18.5624 3.79613C19.024 3.34418 19.4577 2.84986 19.5416 2.70863C19.6815 2.44029 19.6675 2.44029 18.9541 2.68038C17.765 3.10409 17.5971 3.04759 18.1847 2.41204C18.6183 1.96009 19.1359 1.14094 19.1359 0.90084C19.1359 0.85847 18.9261 0.929087 18.6883 1.0562C18.4365 1.19743 17.8769 1.40928 17.4572 1.53639L16.7018 1.77649L16.0163 1.31042C15.6385 1.0562 15.1069 0.773729 14.8272 0.688989C14.1137 0.491262 13.0225 0.519509 12.379 0.745483C10.6303 1.38103 9.5251 3.01935 9.651 4.81301Z" fill="#E0EBFF"/>
</svg>
