<svg width="22" height="23" viewBox="0 0 22 23" fill="none" xmlns="http://www.w3.org/2000/svg">
<path fill-rule="evenodd" clip-rule="evenodd" d="M11.251 0.890015C8.35406 0.890015 7.9905 0.902681 6.85271 0.95446C5.71715 1.00646 4.94203 1.18624 4.2638 1.45002C3.56223 1.72247 2.96712 2.08692 2.37422 2.68003C1.78088 3.27293 1.41643 3.86805 1.1431 4.56939C0.87865 5.24784 0.698648 6.02318 0.647536 7.1583C0.596646 8.29609 0.583313 8.65987 0.583313 11.5568C0.583313 14.4537 0.596202 14.8162 0.647758 15.9539C0.699981 17.0895 0.879761 17.8646 1.14332 18.5429C1.41599 19.2444 1.78044 19.8395 2.37355 20.4324C2.96623 21.0258 3.56134 21.3911 4.26246 21.6636C4.94114 21.9273 5.71648 22.1071 6.85182 22.1591C7.98961 22.2109 8.35295 22.2236 11.2497 22.2236C14.1468 22.2236 14.5092 22.2109 15.647 22.1591C16.7826 22.1071 17.5586 21.9273 18.2373 21.6636C18.9386 21.3911 19.5328 21.0258 20.1255 20.4324C20.7189 19.8395 21.0833 19.2444 21.3566 18.5431C21.6189 17.8646 21.7989 17.0893 21.8522 15.9542C21.9033 14.8164 21.9167 14.4537 21.9167 11.5568C21.9167 8.65987 21.9033 8.29631 21.8522 7.15852C21.7989 6.02296 21.6189 5.24784 21.3566 4.56961C21.0833 3.86805 20.7189 3.27293 20.1255 2.68003C19.5322 2.08669 18.9388 1.72225 18.2366 1.45002C17.5566 1.18624 16.781 1.00646 15.6455 0.95446C14.5077 0.902681 14.1455 0.890015 11.2477 0.890015H11.251ZM10.294 2.81223C10.578 2.81178 10.8949 2.81223 11.2509 2.81223C14.099 2.81223 14.4365 2.82245 15.5612 2.87356C16.6012 2.92112 17.1657 3.0949 17.5417 3.2409C18.0395 3.43423 18.3943 3.66535 18.7675 4.03868C19.1408 4.41202 19.3719 4.76758 19.5657 5.26536C19.7117 5.64092 19.8857 6.20537 19.933 7.24538C19.9841 8.36984 19.9953 8.70762 19.9953 11.5543C19.9953 14.401 19.9841 14.7388 19.933 15.8633C19.8855 16.9033 19.7117 17.4677 19.5657 17.8433C19.3724 18.3411 19.1408 18.6955 18.7675 19.0686C18.3941 19.442 18.0397 19.6731 17.5417 19.8664C17.1661 20.0131 16.6012 20.1864 15.5612 20.234C14.4367 20.2851 14.099 20.2962 11.2509 20.2962C8.40268 20.2962 8.06513 20.2851 6.94067 20.234C5.90066 20.186 5.33621 20.0122 4.95998 19.8662C4.4622 19.6728 4.10664 19.4417 3.7333 19.0684C3.35996 18.6951 3.12885 18.3404 2.93507 17.8424C2.78907 17.4668 2.61507 16.9024 2.56773 15.8624C2.51662 14.7379 2.5064 14.4001 2.5064 11.5517C2.5064 8.70318 2.51662 8.36717 2.56773 7.24272C2.61529 6.20271 2.78907 5.63826 2.93507 5.26225C3.12841 4.76447 3.35996 4.40891 3.7333 4.03557C4.10664 3.66224 4.4622 3.43112 4.95998 3.23734C5.33598 3.09067 5.90066 2.91734 6.94067 2.86956C7.92468 2.82512 8.30602 2.81178 10.294 2.80956V2.81223ZM16.9448 4.58336C16.2381 4.58336 15.6648 5.15603 15.6648 5.86293C15.6648 6.5696 16.2381 7.14294 16.9448 7.14294C17.6515 7.14294 18.2248 6.5696 18.2248 5.86293C18.2248 5.15626 17.6515 4.58336 16.9448 4.58336ZM11.251 6.07893C8.22586 6.07893 5.77316 8.53162 5.77316 11.5568C5.77316 14.5819 8.22586 17.0335 11.251 17.0335C14.2761 17.0335 16.7279 14.5819 16.7279 11.5568C16.7279 8.53162 14.2761 6.07893 11.251 6.07893ZM11.251 8.00117C13.2145 8.00117 14.8066 9.59296 14.8066 11.5568C14.8066 13.5203 13.2145 15.1124 11.251 15.1124C9.28716 15.1124 7.69537 13.5203 7.69537 11.5568C7.69537 9.59296 9.28716 8.00117 11.251 8.00117Z" fill="#E0EBFF"/>
</svg>
