<svg width="22" height="16" viewBox="0 0 22 16" fill="none" xmlns="http://www.w3.org/2000/svg">
<path fill-rule="evenodd" clip-rule="evenodd" d="M19.5847 0.681041C20.5026 0.932928 21.2256 1.67511 21.4709 2.61762C21.9167 4.3258 21.9167 7.88993 21.9167 7.88993C21.9167 7.88993 21.9167 11.4539 21.4709 13.1623C21.2256 14.1048 20.5026 14.8469 19.5847 15.0989C17.9212 15.5566 11.25 15.5566 11.25 15.5566C11.25 15.5566 4.57889 15.5566 2.91525 15.0989C1.99731 14.8469 1.2744 14.1048 1.02907 13.1623C0.583374 11.4539 0.583374 7.88993 0.583374 7.88993C0.583374 7.88993 0.583374 4.3258 1.02907 2.61762C1.2744 1.67511 1.99731 0.932928 2.91525 0.681041C4.57889 0.223267 11.25 0.223267 11.25 0.223267C11.25 0.223267 17.9212 0.223267 19.5847 0.681041ZM9.25006 4.88986V11.5565L14.5834 8.22332L9.25006 4.88986Z" fill="#E0EBFF"/>
</svg>
